<mxfile host="app.diagrams.net" modified="2022-01-11T13:38:53.372Z" agent="5.0 (Windows NT 10.0; Win64; x64) AppleWebKit/537.36 (KHTML, like Gecko) Chrome/94.0.4606.71 Safari/537.36" etag="yJ7Gx-Cq1m6ovY1hmsDA" version="16.1.0" type="github">
  <diagram id="p-LmZyw0rNQlU6QD168w" name="Page-1">
    <mxGraphModel dx="1185" dy="635" grid="1" gridSize="10" guides="1" tooltips="1" connect="1" arrows="1" fold="1" page="1" pageScale="1" pageWidth="827" pageHeight="1169" math="0" shadow="0">
      <root>
        <mxCell id="0" />
        <mxCell id="1" parent="0" />
        <mxCell id="SRQwGarIyVLTX7QZItQ6-1" value="&lt;font style=&quot;font-size: 14px&quot;&gt;黑白视频&lt;/font&gt;" style="whiteSpace=wrap;html=1;aspect=fixed;" vertex="1" parent="1">
          <mxGeometry x="10" y="261.5" width="93" height="93" as="geometry" />
        </mxCell>
        <mxCell id="SRQwGarIyVLTX7QZItQ6-4" value="&lt;font face=&quot;Times New Roman&quot; style=&quot;font-size: 14px&quot;&gt;实例着色网络&lt;/font&gt;" style="rounded=0;whiteSpace=wrap;html=1;" vertex="1" parent="1">
          <mxGeometry x="230" y="234" width="120" height="60" as="geometry" />
        </mxCell>
        <mxCell id="SRQwGarIyVLTX7QZItQ6-5" value="&lt;font face=&quot;Times New Roman&quot; style=&quot;font-size: 14px&quot;&gt;全图像着色网络&lt;/font&gt;" style="rounded=0;whiteSpace=wrap;html=1;" vertex="1" parent="1">
          <mxGeometry x="230" y="327" width="120" height="60" as="geometry" />
        </mxCell>
        <mxCell id="SRQwGarIyVLTX7QZItQ6-11" value="" style="endArrow=classic;startArrow=classic;html=1;rounded=0;strokeWidth=3;" edge="1" parent="1">
          <mxGeometry width="50" height="50" relative="1" as="geometry">
            <mxPoint x="220" y="360" as="sourcePoint" />
            <mxPoint x="220" y="260" as="targetPoint" />
            <Array as="points">
              <mxPoint x="180" y="360" />
              <mxPoint x="180" y="260" />
            </Array>
          </mxGeometry>
        </mxCell>
        <mxCell id="SRQwGarIyVLTX7QZItQ6-12" value="" style="endArrow=none;html=1;rounded=0;strokeWidth=3;endFill=0;" edge="1" parent="1">
          <mxGeometry width="50" height="50" relative="1" as="geometry">
            <mxPoint x="110" y="310" as="sourcePoint" />
            <mxPoint x="180" y="310" as="targetPoint" />
            <Array as="points">
              <mxPoint x="140" y="310" />
            </Array>
          </mxGeometry>
        </mxCell>
        <mxCell id="SRQwGarIyVLTX7QZItQ6-14" value="&lt;font style=&quot;font-size: 14px&quot;&gt;是否为黑白视频？&lt;/font&gt;" style="html=1;whiteSpace=wrap;aspect=fixed;shape=isoRectangle;" vertex="1" parent="1">
          <mxGeometry x="78" y="479.5" width="132.5" height="79.5" as="geometry" />
        </mxCell>
        <mxCell id="SRQwGarIyVLTX7QZItQ6-15" value="" style="endArrow=classic;html=1;rounded=0;strokeWidth=3;" edge="1" parent="1">
          <mxGeometry width="50" height="50" relative="1" as="geometry">
            <mxPoint x="11" y="519" as="sourcePoint" />
            <mxPoint x="71" y="519" as="targetPoint" />
          </mxGeometry>
        </mxCell>
        <mxCell id="SRQwGarIyVLTX7QZItQ6-17" value="" style="endArrow=classic;html=1;rounded=0;strokeWidth=3;" edge="1" parent="1">
          <mxGeometry width="50" height="50" relative="1" as="geometry">
            <mxPoint x="215.99999999999977" y="519.5799999999999" as="sourcePoint" />
            <mxPoint x="625" y="520" as="targetPoint" />
          </mxGeometry>
        </mxCell>
        <mxCell id="SRQwGarIyVLTX7QZItQ6-18" value="否" style="whiteSpace=wrap;html=1;aspect=fixed;strokeColor=none;" vertex="1" parent="1">
          <mxGeometry x="217" y="493" width="23" height="23" as="geometry" />
        </mxCell>
        <mxCell id="SRQwGarIyVLTX7QZItQ6-19" value="" style="endArrow=none;startArrow=none;html=1;rounded=0;strokeWidth=3;startFill=0;endFill=0;" edge="1" parent="1">
          <mxGeometry width="50" height="50" relative="1" as="geometry">
            <mxPoint x="360" y="359" as="sourcePoint" />
            <mxPoint x="360" y="259" as="targetPoint" />
            <Array as="points">
              <mxPoint x="400" y="359" />
              <mxPoint x="400" y="259" />
            </Array>
          </mxGeometry>
        </mxCell>
        <mxCell id="SRQwGarIyVLTX7QZItQ6-20" value="" style="ellipse;whiteSpace=wrap;html=1;aspect=fixed;" vertex="1" parent="1">
          <mxGeometry x="452" y="268" width="80" height="80" as="geometry" />
        </mxCell>
        <mxCell id="SRQwGarIyVLTX7QZItQ6-21" value="" style="shape=cross;whiteSpace=wrap;html=1;" vertex="1" parent="1">
          <mxGeometry x="452" y="268" width="80" height="80" as="geometry" />
        </mxCell>
        <mxCell id="SRQwGarIyVLTX7QZItQ6-22" value="" style="endArrow=classic;html=1;rounded=0;strokeWidth=3;" edge="1" parent="1">
          <mxGeometry width="50" height="50" relative="1" as="geometry">
            <mxPoint x="399.9999999999998" y="307.58000000000004" as="sourcePoint" />
            <mxPoint x="450" y="308" as="targetPoint" />
          </mxGeometry>
        </mxCell>
        <mxCell id="SRQwGarIyVLTX7QZItQ6-25" value="融合模块" style="rounded=0;whiteSpace=wrap;html=1;strokeColor=#FFFFFF;" vertex="1" parent="1">
          <mxGeometry x="446" y="353" width="92" height="23" as="geometry" />
        </mxCell>
        <mxCell id="SRQwGarIyVLTX7QZItQ6-27" value="" style="endArrow=classic;html=1;rounded=0;fontFamily=Times New Roman;fontSize=14;strokeWidth=3;" edge="1" parent="1">
          <mxGeometry width="50" height="50" relative="1" as="geometry">
            <mxPoint x="541" y="307.58" as="sourcePoint" />
            <mxPoint x="591" y="308" as="targetPoint" />
          </mxGeometry>
        </mxCell>
        <mxCell id="SRQwGarIyVLTX7QZItQ6-28" value="&lt;font style=&quot;font-size: 14px&quot;&gt;彩色视频&lt;/font&gt;" style="whiteSpace=wrap;html=1;aspect=fixed;" vertex="1" parent="1">
          <mxGeometry x="599" y="261.5" width="93" height="93" as="geometry" />
        </mxCell>
      </root>
    </mxGraphModel>
  </diagram>
</mxfile>
